# xmcd
#
# Track frame offsets:
#	150
#	21086
#	45405
#	68336
#	93254
#	123811
#	147408
#	181408
#	203316
#	226758
#	253203
#	282679
#	298395
#	317063
#
# Disc length: 4530 seconds
#
# Revision: 1
# Processed by: cddbd v1.5.1PL0 Copyright (c) Steve Scherf et al.
# Submitted via: audiograbber 1.81.03
#
DISCID=c511b00e
DTITLE=Wamma Jamma - Komin Atcha
DYEAR=2005
DGENRE=Blues
TTITLE0=The Trip
TTITLE1=Knowin It
TTITLE2=Wotcha Gonna Tell Me
TTITLE3=Walk Away
TTITLE4=C Jay
TTITLE5=It Gets You
TTITLE6=Slow Walk
TTITLE7=Hangin On A String
TTITLE8=Fool You
TTITLE9=Dark
TTITLE10=6/1 Too
TTITLE11=Komin Atcha
TTITLE12=Low Down And Dirty
TTITLE13=Harlem Nocturne
EXTD=
EXTT0=
EXTT1=
EXTT2=
EXTT3=
EXTT4=
EXTT5=
EXTT6=
EXTT7=
EXTT8=
EXTT9=
EXTT10=
EXTT11=
EXTT12=
EXTT13=
PLAYORDER=
